<svg width="141" height="94" viewBox="0 0 141 94" version="1.1" xmlns="http://www.w3.org/2000/svg" xmlns:xlink="http://www.w3.org/1999/xlink">
<title>TurboScript Logo (Canvas)</title>
<desc>Created using Figma</desc>
<g id="Canvas">
<g id="TurboScript Logo">
<g id="TurboScript">
<use xlink:href="#path0_fill" transform="translate(0 65.9418)" fill="#393939"/>
</g>
<g id="Logo">
<g id="WASM">
<use xlink:href="#path1_fill" transform="translate(41.963 29.4286)" fill="#654FF0"/>
</g>
<g id="JAVASCRIPT">
<use xlink:href="#path1_fill" transform="translate(41.963 0)" fill="#F2C94C"/>
</g>
<g id="Connection">
<use xlink:href="#path2_fill" transform="translate(63.7619 21.7989)" fill="#F2C94C"/>
</g>
</g>
</g>
</g>
<defs>
<path id="path0_fill" d="M 14.092 8.388L 14.092 5.658L 0.468 5.658L 0.468 8.388L 5.746 8.388L 5.746 23L 8.814 23L 8.814 8.388L 14.092 8.388ZM 24.9492 23L 24.9492 10.312L 22.0112 10.312L 22.0112 16.214C 22.0112 18.424 22.2452 20.608 19.0732 20.608C 16.5252 20.608 16.7592 19.438 16.7592 16.994L 16.7592 10.312L 13.8212 10.312L 13.8212 17.228C 13.8212 19.984 13.6132 23.208 18.7352 23.208C 20.5292 23.208 21.6732 22.636 22.4012 21.986L 22.4012 23L 24.9492 23ZM 38.362 14.108C 38.362 11.326 36.984 10.104 34.254 10.104C 32.772 10.104 31.602 10.572 30.77 11.456L 30.77 10.312L 28.222 10.312L 28.222 23L 31.16 23L 31.16 17.488C 31.16 16.5 31.108 15.096 31.446 14.186C 31.758 13.328 32.512 12.678 33.734 12.678C 34.956 12.678 35.528 12.938 35.528 14.108L 38.362 14.108ZM 52.0339 16.682C 52.0339 12.834 51.4359 10.104 47.0939 10.104C 45.7159 10.104 44.2079 10.26 43.2459 11.248L 43.2459 4.878L 40.3079 4.878L 40.3079 23L 42.9599 23L 42.9599 21.986C 43.7399 22.688 44.9359 23.208 46.6259 23.208C 51.6959 23.208 52.0339 19.776 52.0339 16.682ZM 49.0959 16.682C 49.0959 19.646 48.6279 20.556 46.4439 20.556C 43.9219 20.556 43.1939 19.854 43.1939 16.682C 43.1939 13.51 43.9219 12.808 46.4439 12.808C 48.6279 12.808 49.0959 13.718 49.0959 16.682ZM 66.6583 16.656C 66.6583 14.238 66.4243 12.6 65.3063 11.534C 64.2143 10.468 62.6543 10.104 60.6263 10.104C 58.5723 10.104 57.0383 10.468 55.9463 11.534C 54.8283 12.6 54.5943 14.238 54.5943 16.656C 54.5943 19.074 54.8283 20.712 55.9463 21.778C 57.0383 22.844 58.5723 23.208 60.6263 23.208C 62.6543 23.208 64.2143 22.844 65.3063 21.778C 66.4243 20.712 66.6583 19.074 66.6583 16.656ZM 63.7203 16.656C 63.7203 19.516 63.4603 20.608 60.6263 20.608C 57.7923 20.608 57.5323 19.516 57.5323 16.656C 57.5323 13.796 57.7923 12.704 60.6263 12.704C 63.4603 12.704 63.7203 13.796 63.7203 16.656ZM 82.7399 17.878C 82.7659 13.328 79.5939 13.484 76.2659 13.432C 74.7319 13.406 73.1979 13.406 72.3659 12.964C 71.6899 12.6 71.2739 11.846 71.2739 10.39C 71.2739 7.738 72.2619 6.932 76.1099 6.932C 79.0739 6.932 81.1019 7.114 81.1019 10.156L 82.5579 10.156C 82.5579 6.646 80.6079 5.476 76.1619 5.476C 71.6119 5.476 69.7399 6.672 69.7399 10.416C 69.7399 14.888 72.8339 14.81 76.2139 14.862C 77.7739 14.888 79.3079 14.862 80.1139 15.304C 80.8159 15.668 81.1799 16.552 81.1799 18.008C 81.1799 20.686 80.1139 21.752 76.2659 21.752C 72.4439 21.752 71.2479 20.972 71.2479 18.476L 69.7399 18.476C 69.7399 22.038 71.7679 23.208 76.2139 23.208C 80.8419 23.208 82.7399 21.57 82.7399 17.878ZM 96.6922 19.464L 95.2882 19.464C 95.2882 21.544 93.3902 21.752 91.6742 21.752C 87.9562 21.752 87.7222 20.01 87.7222 16.734C 87.7222 13.458 87.9562 11.742 91.6742 11.742C 93.3902 11.742 95.2882 11.976 95.2882 14.056L 96.6922 14.056C 96.6922 11.014 94.3002 10.312 91.6482 10.312C 86.7082 10.312 86.2142 12.886 86.2142 16.786C 86.2142 20.686 86.7082 23.208 91.6482 23.208C 94.3002 23.208 96.6922 22.506 96.6922 19.464ZM 109.288 13.952C 109.288 11.456 107.962 10.312 105.466 10.312C 103.828 10.312 102.554 10.78 101.67 11.976L 101.67 10.52L 100.214 10.52L 100.214 23L 101.722 23L 101.722 17.592C 101.722 15.07 101.514 11.742 105.18 11.742C 107.156 11.742 107.884 12.236 107.884 13.952L 109.288 13.952ZM 113.484 6.464C 113.484 5.814 113.12 5.476 112.47 5.476C 111.82 5.476 111.482 5.814 111.482 6.464C 111.482 7.088 111.82 7.478 112.47 7.478C 113.12 7.478 113.484 7.088 113.484 6.464ZM 113.224 23L 113.224 10.52L 111.716 10.52L 111.716 23L 113.224 23ZM 128.091 16.786C 128.091 13.016 127.701 10.312 122.969 10.312C 121.019 10.312 119.615 10.91 118.809 12.028L 118.809 10.52L 117.353 10.52L 117.353 27.966L 118.861 27.966L 118.861 21.596C 119.719 22.662 121.019 23.208 122.969 23.208C 127.831 23.208 128.091 20.218 128.091 16.786ZM 126.583 16.76C 126.583 20.01 126.193 21.752 123.099 21.752C 119.927 21.752 118.835 20.712 118.835 16.76C 118.835 12.808 119.927 11.742 123.099 11.742C 126.193 11.742 126.583 13.51 126.583 16.76ZM 140.77 19.464L 139.366 19.464C 139.366 21.154 138.612 21.856 136.636 21.856C 134.816 21.856 134.036 21.284 134.036 19.49L 134.036 11.872L 139.73 11.872L 139.73 10.52L 134.036 10.52L 134.036 5.658L 132.528 5.658L 132.528 10.52L 130.422 10.52L 130.422 11.872L 132.528 11.872L 132.528 19.49C 132.528 22.09 133.854 23.208 136.584 23.208C 139.158 23.208 140.77 22.194 140.77 19.464Z"/>
<path id="path1_fill" d="M 0 0L 58.8571 0L 58.8571 29.4286L 0 29.4286L 0 0Z"/>
<path id="path2_fill" d="M 15.2593 7.62963C 15.2593 11.8434 11.8434 15.2593 7.62963 15.2593C 3.4159 15.2593 0 11.8434 0 7.62963C 0 3.4159 3.4159 0 7.62963 0C 11.8434 0 15.2593 3.4159 15.2593 7.62963Z"/>
</defs>
</svg>
