<svg width="130" height="88" viewBox="0 0 130 88" version="1.1" xmlns="http://www.w3.org/2000/svg" xmlns:xlink="http://www.w3.org/1999/xlink">
<title>TurboScript Logo (Canvas)</title>
<desc>Created using Figma</desc>
<g id="Canvas">
<g id="TurboScript Logo">
<g id="TurboScript">
<use xlink:href="#path0_fill" transform="translate(0 60.8201)" fill="#393939"/>
</g>
<g id="Logo">
<g id="WASM">
<use xlink:href="#path1_fill" transform="translate(38.7037 27.1429)" fill="#654FF0"/>
</g>
<g id="JAVASCRIPT">
<use xlink:href="#path1_fill" transform="translate(38.7037 0)" fill="#F2C94C"/>
</g>
<g id="Connection">
<use xlink:href="#path2_fill" transform="translate(58.8095 20.1058)" fill="#F2C94C"/>
</g>
</g>
</g>
</g>
<defs>
<path id="path0_fill" d="M 13.008 8.512L 13.008 5.992L 0.432 5.992L 0.432 8.512L 5.304 8.512L 5.304 22L 8.136 22L 8.136 8.512L 13.008 8.512ZM 23.0301 22L 23.0301 10.288L 20.3181 10.288L 20.3181 15.736C 20.3181 17.776 20.5341 19.792 17.6061 19.792C 15.2541 19.792 15.4701 18.712 15.4701 16.456L 15.4701 10.288L 12.7581 10.288L 12.7581 16.672C 12.7581 19.216 12.5661 22.192 17.2941 22.192C 18.9501 22.192 20.0061 21.664 20.6781 21.064L 20.6781 22L 23.0301 22ZM 35.4111 13.792C 35.4111 11.224 34.1391 10.096 31.6191 10.096C 30.2511 10.096 29.1711 10.528 28.4031 11.344L 28.4031 10.288L 26.0511 10.288L 26.0511 22L 28.7631 22L 28.7631 16.912C 28.7631 16 28.7151 14.704 29.0271 13.864C 29.3151 13.072 30.0111 12.472 31.1391 12.472C 32.2671 12.472 32.7951 12.712 32.7951 13.792L 35.4111 13.792ZM 48.0313 16.168C 48.0313 12.616 47.4793 10.096 43.4713 10.096C 42.1993 10.096 40.8073 10.24 39.9193 11.152L 39.9193 5.272L 37.2073 5.272L 37.2073 22L 39.6553 22L 39.6553 21.064C 40.3753 21.712 41.4793 22.192 43.0393 22.192C 47.7193 22.192 48.0313 19.024 48.0313 16.168ZM 45.3193 16.168C 45.3193 18.904 44.8873 19.744 42.8713 19.744C 40.5433 19.744 39.8713 19.096 39.8713 16.168C 39.8713 13.24 40.5433 12.592 42.8713 12.592C 44.8873 12.592 45.3193 13.432 45.3193 16.168ZM 61.5307 16.144C 61.5307 13.912 61.3147 12.4 60.2828 11.416C 59.2747 10.432 57.8347 10.096 55.9627 10.096C 54.0667 10.096 52.6508 10.432 51.6427 11.416C 50.6107 12.4 50.3948 13.912 50.3948 16.144C 50.3948 18.376 50.6107 19.888 51.6427 20.872C 52.6508 21.856 54.0667 22.192 55.9627 22.192C 57.8347 22.192 59.2747 21.856 60.2828 20.872C 61.3147 19.888 61.5307 18.376 61.5307 16.144ZM 58.8188 16.144C 58.8188 18.784 58.5787 19.792 55.9627 19.792C 53.3468 19.792 53.1067 18.784 53.1067 16.144C 53.1067 13.504 53.3468 12.496 55.9627 12.496C 58.5787 12.496 58.8188 13.504 58.8188 16.144ZM 76.3753 17.272C 76.3993 13.072 73.4713 13.216 70.3993 13.168C 68.9833 13.144 67.5673 13.144 66.7993 12.736C 66.1753 12.4 65.7913 11.704 65.7913 10.36C 65.7913 7.912 66.7033 7.168 70.2553 7.168C 72.9913 7.168 74.8633 7.336 74.8633 10.144L 76.2073 10.144C 76.2073 6.904 74.4073 5.824 70.3033 5.824C 66.1033 5.824 64.3753 6.928 64.3753 10.384C 64.3753 14.512 67.2313 14.44 70.3513 14.488C 71.7913 14.512 73.2073 14.488 73.9513 14.896C 74.5993 15.232 74.9353 16.048 74.9353 17.392C 74.9353 19.864 73.9513 20.848 70.3993 20.848C 66.8713 20.848 65.7673 20.128 65.7673 17.824L 64.3753 17.824C 64.3753 21.112 66.2473 22.192 70.3513 22.192C 74.6233 22.192 76.3753 20.68 76.3753 17.272ZM 89.2543 18.736L 87.9583 18.736C 87.9583 20.656 86.2063 20.848 84.6223 20.848C 81.1903 20.848 80.9743 19.24 80.9743 16.216C 80.9743 13.192 81.1903 11.608 84.6223 11.608C 86.2063 11.608 87.9583 11.824 87.9583 13.744L 89.2543 13.744C 89.2543 10.936 87.0463 10.288 84.5983 10.288C 80.0383 10.288 79.5823 12.664 79.5823 16.264C 79.5823 19.864 80.0383 22.192 84.5983 22.192C 87.0463 22.192 89.2543 21.544 89.2543 18.736ZM 100.881 13.648C 100.881 11.344 99.6574 10.288 97.3534 10.288C 95.8414 10.288 94.6654 10.72 93.8494 11.824L 93.8494 10.48L 92.5054 10.48L 92.5054 22L 93.8974 22L 93.8974 17.008C 93.8974 14.68 93.7054 11.608 97.0894 11.608C 98.9134 11.608 99.5854 12.064 99.5854 13.648L 100.881 13.648ZM 104.755 6.736C 104.755 6.136 104.419 5.824 103.819 5.824C 103.219 5.824 102.907 6.136 102.907 6.736C 102.907 7.312 103.219 7.672 103.819 7.672C 104.419 7.672 104.755 7.312 104.755 6.736ZM 104.515 22L 104.515 10.48L 103.123 10.48L 103.123 22L 104.515 22ZM 118.238 16.264C 118.238 12.784 117.878 10.288 113.51 10.288C 111.71 10.288 110.414 10.84 109.67 11.872L 109.67 10.48L 108.326 10.48L 108.326 26.584L 109.718 26.584L 109.718 20.704C 110.51 21.688 111.71 22.192 113.51 22.192C 117.998 22.192 118.238 19.432 118.238 16.264ZM 116.846 16.24C 116.846 19.24 116.486 20.848 113.63 20.848C 110.702 20.848 109.694 19.888 109.694 16.24C 109.694 12.592 110.702 11.608 113.63 11.608C 116.486 11.608 116.846 13.24 116.846 16.24ZM 129.942 18.736L 128.646 18.736C 128.646 20.296 127.95 20.944 126.126 20.944C 124.446 20.944 123.726 20.416 123.726 18.76L 123.726 11.728L 128.982 11.728L 128.982 10.48L 123.726 10.48L 123.726 5.992L 122.334 5.992L 122.334 10.48L 120.39 10.48L 120.39 11.728L 122.334 11.728L 122.334 18.76C 122.334 21.16 123.558 22.192 126.078 22.192C 128.454 22.192 129.942 21.256 129.942 18.736Z"/>
<path id="path1_fill" d="M 0 0L 54.2857 0L 54.2857 27.1429L 0 27.1429L 0 0Z"/>
<path id="path2_fill" d="M 14.0741 7.03704C 14.0741 10.9235 10.9235 14.0741 7.03704 14.0741C 3.15059 14.0741 0 10.9235 0 7.03704C 0 3.15059 3.15059 0 7.03704 0C 10.9235 0 14.0741 3.15059 14.0741 7.03704Z"/>
</defs>
</svg>
