<svg width="260" height="174" viewBox="0 0 260 174" version="1.1" xmlns="http://www.w3.org/2000/svg" xmlns:xlink="http://www.w3.org/1999/xlink">
<title>TurboScript Logo (Canvas)</title>
<desc>Created using Figma</desc>
<g id="Canvas">
<g id="TurboScript Logo">
<g id="TurboScript">
<use xlink:href="#path0_fill" transform="translate(0 121)" fill="#393939"/>
</g>
<g id="Logo">
<g id="WASM">
<use xlink:href="#path1_fill" transform="translate(77 54)" fill="#654FF0"/>
</g>
<g id="JAVASCRIPT">
<use xlink:href="#path1_fill" transform="translate(77 0)" fill="#F2C94C"/>
</g>
<g id="Connection">
<use xlink:href="#path2_fill" transform="translate(117 40)" fill="#F2C94C"/>
</g>
</g>
</g>
</g>
<defs>
<path id="path0_fill" d="M 26.016 16.024L 26.016 10.984L 0.864 10.984L 0.864 16.024L 10.608 16.024L 10.608 43L 16.272 43L 16.272 16.024L 26.016 16.024ZM 46.0601 43L 46.0601 19.576L 40.6361 19.576L 40.6361 30.472C 40.6361 34.552 41.0681 38.584 35.2121 38.584C 30.5081 38.584 30.9401 36.424 30.9401 31.912L 30.9401 19.576L 25.5161 19.576L 25.5161 32.344C 25.5161 37.432 25.1321 43.384 34.5881 43.384C 37.9001 43.384 40.0121 42.328 41.3561 41.128L 41.3561 43L 46.0601 43ZM 70.8221 26.584C 70.8221 21.448 68.2781 19.192 63.2381 19.192C 60.5021 19.192 58.3421 20.056 56.8061 21.688L 56.8061 19.576L 52.1021 19.576L 52.1021 43L 57.5261 43L 57.5261 32.824C 57.5261 31 57.4301 28.408 58.0541 26.728C 58.6301 25.144 60.0221 23.944 62.2781 23.944C 64.5341 23.944 65.5901 24.424 65.5901 26.584L 70.8221 26.584ZM 96.0626 31.336C 96.0626 24.232 94.9586 19.192 86.9426 19.192C 84.3986 19.192 81.6146 19.48 79.8386 21.304L 79.8386 9.544L 74.4146 9.544L 74.4146 43L 79.3106 43L 79.3106 41.128C 80.7506 42.424 82.9586 43.384 86.0786 43.384C 95.4386 43.384 96.0626 37.048 96.0626 31.336ZM 90.6386 31.336C 90.6386 36.808 89.7746 38.488 85.7426 38.488C 81.0866 38.488 79.7426 37.192 79.7426 31.336C 79.7426 25.48 81.0866 24.184 85.7426 24.184C 89.7746 24.184 90.6386 25.864 90.6386 31.336ZM 123.061 31.288C 123.061 26.824 122.629 23.8 120.566 21.832C 118.549 19.864 115.669 19.192 111.925 19.192C 108.133 19.192 105.302 19.864 103.285 21.832C 101.221 23.8 100.79 26.824 100.79 31.288C 100.79 35.752 101.221 38.776 103.285 40.744C 105.302 42.712 108.133 43.384 111.925 43.384C 115.669 43.384 118.549 42.712 120.566 40.744C 122.629 38.776 123.061 35.752 123.061 31.288ZM 117.638 31.288C 117.638 36.568 117.157 38.584 111.925 38.584C 106.694 38.584 106.213 36.568 106.213 31.288C 106.213 26.008 106.694 23.992 111.925 23.992C 117.157 23.992 117.638 26.008 117.638 31.288ZM 152.751 33.544C 152.799 25.144 146.943 25.432 140.799 25.336C 137.967 25.288 135.135 25.288 133.599 24.472C 132.351 23.8 131.583 22.408 131.583 19.72C 131.583 14.824 133.407 13.336 140.511 13.336C 145.983 13.336 149.727 13.672 149.727 19.288L 152.415 19.288C 152.415 12.808 148.815 10.648 140.607 10.648C 132.207 10.648 128.751 12.856 128.751 19.768C 128.751 28.024 134.463 27.88 140.703 27.976C 143.583 28.024 146.415 27.976 147.903 28.792C 149.199 29.464 149.871 31.096 149.871 33.784C 149.871 38.728 147.903 40.696 140.799 40.696C 133.743 40.696 131.535 39.256 131.535 34.648L 128.751 34.648C 128.751 41.224 132.495 43.384 140.703 43.384C 149.247 43.384 152.751 40.36 152.751 33.544ZM 178.509 36.472L 175.917 36.472C 175.917 40.312 172.413 40.696 169.245 40.696C 162.381 40.696 161.949 37.48 161.949 31.432C 161.949 25.384 162.381 22.216 169.245 22.216C 172.413 22.216 175.917 22.648 175.917 26.488L 178.509 26.488C 178.509 20.872 174.093 19.576 169.197 19.576C 160.077 19.576 159.165 24.328 159.165 31.528C 159.165 38.728 160.077 43.384 169.197 43.384C 174.093 43.384 178.509 42.088 178.509 36.472ZM 201.763 26.296C 201.763 21.688 199.315 19.576 194.707 19.576C 191.683 19.576 189.331 20.44 187.699 22.648L 187.699 19.96L 185.011 19.96L 185.011 43L 187.795 43L 187.795 33.016C 187.795 28.36 187.411 22.216 194.179 22.216C 197.827 22.216 199.171 23.128 199.171 26.296L 201.763 26.296ZM 209.509 12.472C 209.509 11.272 208.837 10.648 207.637 10.648C 206.437 10.648 205.813 11.272 205.813 12.472C 205.813 13.624 206.437 14.344 207.637 14.344C 208.837 14.344 209.509 13.624 209.509 12.472ZM 209.029 43L 209.029 19.96L 206.245 19.96L 206.245 43L 209.029 43ZM 236.475 31.528C 236.475 24.568 235.755 19.576 227.019 19.576C 223.419 19.576 220.827 20.68 219.339 22.744L 219.339 19.96L 216.651 19.96L 216.651 52.168L 219.435 52.168L 219.435 40.408C 221.019 42.376 223.419 43.384 227.019 43.384C 235.995 43.384 236.475 37.864 236.475 31.528ZM 233.691 31.48C 233.691 37.48 232.971 40.696 227.259 40.696C 221.403 40.696 219.387 38.776 219.387 31.48C 219.387 24.184 221.403 22.216 227.259 22.216C 232.971 22.216 233.691 25.48 233.691 31.48ZM 259.883 36.472L 257.291 36.472C 257.291 39.592 255.899 40.888 252.251 40.888C 248.891 40.888 247.451 39.832 247.451 36.52L 247.451 22.456L 257.963 22.456L 257.963 19.96L 247.451 19.96L 247.451 10.984L 244.667 10.984L 244.667 19.96L 240.779 19.96L 240.779 22.456L 244.667 22.456L 244.667 36.52C 244.667 41.32 247.115 43.384 252.155 43.384C 256.907 43.384 259.883 41.512 259.883 36.472Z"/>
<path id="path1_fill" d="M 0 0L 108 0L 108 54L 0 54L 0 0Z"/>
<path id="path2_fill" d="M 28 14C 28 21.732 21.732 28 14 28C 6.26801 28 0 21.732 0 14C 0 6.26801 6.26801 0 14 0C 21.732 0 28 6.26801 28 14Z"/>
</defs>
</svg>
